<svg height="480pt" viewBox="0 0 480 480" width="480pt" xmlns="http://www.w3.org/2000/svg"><path d="m240 8c-128.128906 0-232 103.871094-232 232s103.871094 232 232 232 232-103.871094 232-232-103.871094-232-232-232zm0 88c35.347656 0 64 28.652344 64 64s-28.652344 64-64 64-64-28.652344-64-64 28.652344-64 64-64zm136 280h-272v-24c0-53.019531 42.980469-96 96-96h80c53.019531 0 96 42.980469 96 96zm0 0" fill="#78b9eb"/><g fill="#006df0"><path d="m240 0c-132.546875 0-240 107.453125-240 240s107.453125 240 240 240 240-107.453125 240-240c-.148438-132.484375-107.515625-239.851562-240-240zm0 464c-123.710938 0-224-100.289062-224-224s100.289062-224 224-224 224 100.289062 224 224c-.140625 123.652344-100.347656 223.859375-224 224zm0 0"/><path d="m240 232c39.765625 0 72-32.234375 72-72s-32.234375-72-72-72-72 32.234375-72 72c.046875 39.746094 32.253906 71.953125 72 72zm0-128c30.929688 0 56 25.070312 56 56s-25.070312 56-56 56-56-25.070312-56-56c.035156-30.914062 25.085938-55.964844 56-56zm0 0"/><path d="m280 248h-80c-57.410156.066406-103.933594 46.589844-104 104v24c0 4.417969 3.582031 8 8 8h272c4.417969 0 8-3.582031 8-8v-24c-.066406-57.410156-46.589844-103.933594-104-104zm88 120h-40v-24h-16v24h-144v-24h-16v24h-40v-16c.058594-48.578125 39.421875-87.941406 88-88h80c48.578125.058594 87.941406 39.421875 88 88zm0 0"/></g></svg>