<svg height="464pt" viewBox="0 0 464 464.01421" width="464pt" xmlns="http://www.w3.org/2000/svg"><path d="m232.007812 0c-104.304687 0-195.785156 69.605469-223.601562 170.132812-27.8125 100.527344 14.878906 207.257813 104.351562 260.871094 89.46875 53.613282 203.71875 40.929688 279.25-31.003906 12.421876-11.730469 23.480469-24.824219 32.960938-39.039062 14.695312-22 25.519531-46.351563 32-72 4.664062-18.628907 7.027344-37.757813 7.039062-56.960938 0-128.128906-103.871093-232-232-232zm-136 368v-24c0-53.019531 42.980469-96 96-96h80c25.46875-.027344 49.902344 10.082031 67.910157 28.089844 18.007812 18.007812 28.113281 42.441406 28.089843 67.910156v24zm200-216c.007813 31.957031-23.5625 59.023438-55.21875 63.410156-31.652343 4.386719-61.691406-15.253906-70.375-46.007812-8.683593-30.757813 6.652344-63.203125 35.929688-76.015625 29.277344-12.816407 63.519531-2.070313 80.222656 25.171875l.160156.242187c6.066407 10.011719 9.277344 21.492188 9.28125 33.199219zm0 0" fill="#007579"/><path d="m415.878906 373.519531c.351563-.457031.726563-.894531 1.070313-1.351562 2.78125-3.660157 5.445312-7.390625 8-11.199219 14.699219-22 25.523437-46.351562 32-72l-170.222657-170.167969-.160156-.242187-14.558594-14.558594-80 96 98.839844 98.839844-194.839844 69.160156 91.757813 91.761719c73.742187 14.316406 149.851563-7.953125 204.242187-59.761719.984376-.929688 1.902344-1.921875 2.871094-2.863281 1.601563-1.601563 3.199219-3.144531 4.800782-4.800781 2.230468-2.320313 4.390624-4.71875 6.519531-7.136719.742187-.839844 1.511719-1.65625 2.246093-2.503907 2.546876-2.96875 5.019532-6.046874 7.433594-9.175781zm0 0" fill="#006468"/><path d="m296.007812 152c0 35.347656-28.65625 64-64 64-35.347656 0-64-28.652344-64-64s28.652344-64 64-64c35.34375 0 64 28.652344 64 64zm0 0" fill="#ffeb99"/><path d="m272.007812 248h-80c-53.019531 0-96 42.980469-96 96v24h272v-24c0-53.019531-42.980468-96-96-96zm0 0" fill="#cc7400"/><g fill="#aa6100"><path d="m144.007812 336h16v32h-16zm0 0"/><path d="m304.007812 336h16v32.664062h-16zm0 0"/></g></svg>