<svg height="512pt" viewBox="0 0 512 512" width="512pt" xmlns="http://www.w3.org/2000/svg" xmlns:xlink="http://www.w3.org/1999/xlink"><linearGradient id="a" gradientUnits="userSpaceOnUse" x1="0" x2="512" y1="256" y2="256"><stop offset="0" stop-color="#00f38d"/><stop offset="1" stop-color="#009eff"/></linearGradient><path d="m512 256c0 141.386719-114.613281 256-256 256s-256-114.613281-256-256 114.613281-256 256-256 256 114.613281 256 256zm0 0" fill="url(#a)"/><g fill="#fff"><path d="m301.128906 266.828125c18.328125-15.339844 30.011719-38.371094 30.011719-64.085937 0-46.070313-37.480469-83.554688-83.554687-83.554688-46.074219 0-83.558594 37.480469-83.558594 83.554688 0 25.714843 11.6875 48.746093 30.015625 64.085937-51.5625 21.15625-87.976563 71.894531-87.976563 130.988281h30c0-61.488281 50.027344-111.515625 111.519532-111.515625 61.492187 0 111.519531 50.027344 111.519531 111.515625h30c0-59.09375-36.414063-109.832031-87.976563-130.988281zm-107.101562-64.085937c0-29.53125 24.027344-53.554688 53.558594-53.554688s53.558593 24.023438 53.558593 53.554688-24.027343 53.558593-53.558593 53.558593-53.558594-24.027343-53.558594-53.558593zm0 0"/><path d="m375.933594 76.183594h30v102.917968h-30zm0 0"/><path d="m375.933594 195.265625h30v24.929687h-30zm0 0"/></g></svg>