<svg height="512pt" viewBox="0 0 512 512" width="512pt" xmlns="http://www.w3.org/2000/svg" xmlns:xlink="http://www.w3.org/1999/xlink"><linearGradient id="a" gradientUnits="userSpaceOnUse" x1="0" x2="512" y1="256" y2="256"><stop offset="0" stop-color="#00f1ff"/><stop offset=".231" stop-color="#00d8ff"/><stop offset=".5138" stop-color="#00c0ff"/><stop offset=".7773" stop-color="#00b2ff"/><stop offset="1" stop-color="#00adff"/></linearGradient><path d="m512 256c0 141.386719-114.613281 256-256 256s-256-114.613281-256-256 114.613281-256 256-256 256 114.613281 256 256zm0 0" fill="url(#a)"/><path d="m412.597656 300.945312c-9.363281-6.808593-21.050781-8.664062-32.0625-5.09375l-34.722656 11.253907c-7.128906 2.3125-14.96875 2.265625-22.070312-.132813l-46.507813-15.699218c-13.632813-4.601563-28.621094-4.535157-42.207031.1875l-46.113282 16.019531c-7.15625 2.488281-15.066406 2.582031-22.28125.261719l-9.726562-3.128907c16.25-39.660156 55.625-66.589843 99.09375-66.589843 29.867188 0 58.597656 12.621093 78.820312 34.628906 5.605469 6.101562 15.09375 6.496094 21.195313.894531 6.097656-5.605469 6.5-15.097656.894531-21.195313-13.558594-14.753906-30.105468-26.203124-48.28125-33.773437 17.453125-14.898437 28.550782-37.039063 28.550782-61.730469 0-44.761718-36.417969-81.179687-81.179688-81.179687s-81.179688 36.417969-81.179688 81.179687c0 24.65625 11.066407 46.765625 28.476563 61.667969-10.515625 4.390625-20.519531 10.113281-29.820313 17.140625-20.289062 15.328125-36.09375 36.328125-45.265624 59.902344-10.046876-2.265625-20.394532-.15625-28.84375 6-9.339844 6.808594-14.699219 17.34375-14.699219 28.90625v72.867187c0 8.285157 6.71875 15 15 15 8.285156 0 15-6.714843 15-15v-72.867187c0-2.554688 1.484375-4.019532 2.371093-4.664063.886719-.644531 2.734376-1.609375 5.160157-.828125l35.253906 11.332032c1.988281.636718 4.007813 1.167968 6.042969 1.605468v65.421875c0 8.285157 6.71875 15 15 15 8.285156 0 15-6.714843 15-15v-65.9375c1.777344-.449219 3.53125-.972656 5.265625-1.574219l42.902343-14.90625v82.417969c0 8.285157 6.714844 15 15 15 8.285157 0 15-6.714843 15-15v-82.273437l42.484376 14.339844c1.652343.558593 3.328124 1.046874 5.015624 1.46875v66.46875c0 8.28125 6.71875 15 15 15 8.285157 0 15-6.71875 15-15v-66.097657c1.988282-.441406 3.960938-.964843 5.902344-1.59375l34.71875-11.253906c2.433594-.789063 4.285156.175781 5.171875.820313.886719.644531 2.375 2.109374 2.375 4.664062v73.457031c0 8.285157 6.714844 15 15 15 8.285157 0 15-6.714843 15-15v-73.457031c0-11.578125-5.371093-22.121094-14.734375-28.929688zm-207.777344-144.097656c0-28.21875 22.960938-51.179687 51.179688-51.179687s51.179688 22.957031 51.179688 51.179687c0 28.21875-22.960938 51.175782-51.179688 51.175782s-51.179688-22.957032-51.179688-51.175782zm0 0" fill="#fff"/></svg>